<svg xmlns="http://www.w3.org/2000/svg" xmlns:xlink="http://www.w3.org/1999/xlink" width="399" zoomAndPan="magnify" viewBox="0 0 299.25 231" height="308" preserveAspectRatio="xMidYMid meet" version="1.0"><defs><clipPath id="62e46cfec2"><path d="M 82.613281 39 L 294 39 L 294 229.964844 L 82.613281 229.964844 Z M 82.613281 39 " clip-rule="nonzero"/></clipPath><clipPath id="3b356d690e"><path d="M 82.613281 0.289062 L 298.074219 0.289062 L 298.074219 177 L 82.613281 177 Z M 82.613281 0.289062 " clip-rule="nonzero"/></clipPath><clipPath id="ea8a184062"><path d="M 0 0.289062 L 215.460938 0.289062 L 215.460938 229.964844 L 0 229.964844 Z M 0 0.289062 " clip-rule="nonzero"/></clipPath><clipPath id="57cc5d6155"><path d="M 5 39 L 215.460938 39 L 215.460938 229.964844 L 5 229.964844 Z M 5 39 " clip-rule="nonzero"/></clipPath><clipPath id="713728a697"><path d="M 0.28125 0.289062 L 215.460938 0.289062 L 215.460938 177 L 0.28125 177 Z M 0.28125 0.289062 " clip-rule="nonzero"/></clipPath><clipPath id="fd5192e9b9"><rect x="0" width="216" y="0" height="230"/></clipPath></defs><path fill="#facc9d" d="M 169.683594 35.019531 C 169.683594 37.351562 167.796875 39.210938 165.492188 39.210938 L 127.957031 39.210938 C 125.652344 39.210938 123.765625 37.324219 123.765625 35.019531 C 123.765625 32.710938 125.652344 30.824219 127.957031 30.824219 L 165.464844 30.824219 C 167.796875 30.796875 169.683594 32.683594 169.683594 35.019531 Z M 169.683594 35.019531 " fill-opacity="1" fill-rule="nonzero"/><path fill="#b4b4b4" d="M 159.175781 202.347656 C 159.175781 207.824219 154.746094 212.253906 149.265625 212.253906 C 143.789062 212.253906 139.359375 207.824219 139.359375 202.347656 C 139.359375 196.867188 143.789062 192.4375 149.265625 192.4375 C 154.71875 192.4375 159.175781 196.867188 159.175781 202.347656 Z M 159.175781 202.347656 " fill-opacity="1" fill-rule="nonzero"/><g clip-path="url(#62e46cfec2)"><path fill="#b4b4b4" d="M 293.136719 39.894531 L 264.515625 43.511719 L 270.152344 50.613281 L 218.542969 90.585938 L 198.960938 105.761719 L 88.09375 191.652344 L 82.640625 195.871094 L 82.640625 211.125 C 82.640625 221.609375 91 230.101562 101.300781 230.101562 L 197.257812 230.101562 C 207.558594 230.101562 215.921875 221.609375 215.921875 211.125 L 215.921875 116.402344 L 203.078125 126.386719 L 203.078125 202.085938 C 203.023438 214.273438 199.671875 218.726562 188.007812 218.753906 L 110.605469 218.753906 C 98.707031 218.753906 95.535156 214.664062 95.535156 202.136719 L 193.824219 126.019531 L 223.128906 103.324219 L 278.144531 60.703125 L 283.675781 67.753906 Z M 293.136719 39.894531 " fill-opacity="1" fill-rule="nonzero"/></g><g clip-path="url(#3b356d690e)"><path fill="#facc9d" d="M 298.328125 0.289062 L 269.523438 3.644531 L 275.445312 11.113281 L 95.535156 150.5 L 95.535156 40.46875 C 95.535156 28.4375 98.679688 23.773438 110.605469 23.824219 L 188.03125 23.824219 C 200.691406 23.746094 203.078125 27.3125 203.105469 40.46875 L 203.105469 59.917969 L 215.972656 49.933594 L 215.972656 30.71875 C 215.972656 20.234375 207.613281 11.742188 197.3125 11.742188 L 101.328125 11.742188 C 91.027344 11.742188 82.667969 20.234375 82.667969 30.71875 L 82.667969 176.765625 L 95.535156 166.777344 L 203.078125 83.480469 L 215.945312 73.496094 L 283.386719 21.230469 L 288.367188 27.546875 Z M 298.328125 0.289062 " fill-opacity="1" fill-rule="nonzero"/></g><g clip-path="url(#ea8a184062)"><g transform="matrix(1, 0, 0, 1, 0, 0.000000000000004108)"><g clip-path="url(#fd5192e9b9)"><path fill="#facc9d" d="M 128.667969 35.019531 C 128.667969 37.351562 130.554688 39.210938 132.863281 39.210938 L 170.394531 39.210938 C 172.703125 39.210938 174.589844 37.324219 174.589844 35.019531 C 174.589844 32.710938 172.703125 30.824219 170.394531 30.824219 L 132.886719 30.824219 C 130.554688 30.796875 128.667969 32.683594 128.667969 35.019531 Z M 128.667969 35.019531 " fill-opacity="1" fill-rule="nonzero"/><path fill="#b4b4b4" d="M 139.179688 202.347656 C 139.179688 207.824219 143.609375 212.253906 149.085938 212.253906 C 154.566406 212.253906 158.992188 207.824219 158.992188 202.347656 C 158.992188 196.867188 154.566406 192.4375 149.085938 192.4375 C 143.632812 192.4375 139.179688 196.867188 139.179688 202.347656 Z M 139.179688 202.347656 " fill-opacity="1" fill-rule="nonzero"/><g clip-path="url(#57cc5d6155)"><path fill="#b4b4b4" d="M 5.214844 39.894531 L 33.839844 43.511719 L 28.203125 50.613281 L 79.8125 90.585938 L 99.390625 105.761719 L 210.261719 191.652344 L 215.714844 195.871094 L 215.714844 211.125 C 215.714844 221.609375 207.351562 230.101562 197.050781 230.101562 L 101.09375 230.101562 C 90.792969 230.101562 82.433594 221.609375 82.433594 211.125 L 82.433594 116.402344 L 95.277344 126.386719 L 95.277344 202.085938 C 95.328125 214.273438 98.683594 218.726562 110.347656 218.753906 L 187.746094 218.753906 C 199.648438 218.753906 202.816406 214.664062 202.816406 202.136719 L 104.527344 126.019531 L 75.226562 103.324219 L 20.207031 60.703125 L 14.679688 67.753906 Z M 5.214844 39.894531 " fill-opacity="1" fill-rule="nonzero"/></g><g clip-path="url(#713728a697)"><path fill="#facc9d" d="M 0.0273438 0.289062 L 28.832031 3.644531 L 22.910156 11.113281 L 202.816406 150.5 L 202.816406 40.46875 C 202.816406 28.4375 199.671875 23.773438 187.746094 23.824219 L 110.320312 23.824219 C 97.660156 23.746094 95.277344 27.3125 95.25 40.46875 L 95.25 59.917969 L 82.378906 49.933594 L 82.378906 30.71875 C 82.378906 20.234375 90.742188 11.742188 101.042969 11.742188 L 197.027344 11.742188 C 207.328125 11.742188 215.6875 20.234375 215.6875 30.71875 L 215.6875 176.765625 L 202.816406 166.777344 L 95.277344 83.480469 L 82.40625 73.496094 L 14.964844 21.230469 L 9.988281 27.546875 Z M 0.0273438 0.289062 " fill-opacity="1" fill-rule="nonzero"/></g></g></g></g></svg>